<mxfile host="app.diagrams.net" modified="2024-05-06T13:35:37.855Z" agent="Mozilla/5.0 (Windows NT 10.0; Win64; x64) AppleWebKit/537.36 (KHTML, like Gecko) Chrome/124.0.0.0 Safari/537.36" version="24.2.3" etag="xmsGyOK-BS5qGst_9DJE" type="github">
  <diagram name="Page-1" id="5TwFSU4XLZ9D084qSG8t">
    <mxGraphModel>
      <root>
        <mxCell id="0" />
        <mxCell id="1" parent="0" />
      </root>
    </mxGraphModel>
  </diagram>
</mxfile>
